#tb 0: 1/25
#media_type 0: video
#codec_id 0: rawvideo
#dimensions 0: 720x480
#sar 0: 0/1
0,          0,          0,        1,   518400, 0x077637bf
0,          1,          1,        1,   518400, 0xbd096d55
0,          2,          2,        1,   518400, 0x58b58820
0,          3,          3,        1,   518400, 0xdf24aced
0,          4,          4,        1,   518400, 0x2354c6a2
0,          5,          5,        1,   518400, 0xedaaffdf
0,          6,          6,        1,   518400, 0x28a8f027
0,          7,          7,        1,   518400, 0x05dee3d2
0,          8,          8,        1,   518400, 0x2ae9dbe4
0,          9,          9,        1,   518400, 0x361fec4a
0,         10,         10,        1,   518400, 0xd9c7b07d
0,         11,         11,        1,   518400, 0xa9d69c9f
0,         12,         12,        1,   518400, 0x7f44c08c
0,         13,         13,        1,   518400, 0xbfed83b4
0,         14,         14,        1,   518400, 0x65a5588c
0,         15,         15,        1,   518400, 0xf4859855
0,         16,         16,        1,   518400, 0xcba96df9
0,         17,         17,        1,   518400, 0x8ae11dfd
0,         18,         18,        1,   518400, 0xf0e36904
0,         19,         19,        1,   518400, 0x45cf1cb3
0,         20,         20,        1,   518400, 0xffefde04
0,         21,         21,        1,   518400, 0xc2a8edef
0,         22,         22,        1,   518400, 0x72b15456
0,         23,         23,        1,   518400, 0x67b8dd35
0,         24,         24,        1,   518400, 0x8b91f38e
0,         25,         25,        1,   518400, 0xe7055df1
0,         26,         26,        1,   518400, 0x5c32200d
0,         27,         27,        1,   518400, 0xfbb709dc
0,         28,         28,        1,   518400, 0x5c45b17f
0,         29,         29,        1,   518400, 0x3a25903f
